<svg xmlns="http://www.w3.org/2000/svg" version="1.1" xmlns:xlink="http://www.w3.org/1999/xlink" xmlns:svgjs="http://svgjs.dev/svgjs" width="1000" height="1170" viewBox="0 0 1000 1170"><g transform="matrix(1,0,0,1,0.3060202513674426,0.473684210526244)"><svg viewBox="0 0 211 247" data-background-color="#ffffff" preserveAspectRatio="xMidYMid meet" height="1170" width="1000" xmlns="http://www.w3.org/2000/svg" xmlns:xlink="http://www.w3.org/1999/xlink"><g id="tight-bounds" transform="matrix(1,0,0,1,-0.064570261035783,-0.09999999999999432)"><svg viewBox="0 0 211.12914053407428 247.2" height="247.2" width="211.12914053407428"><g><svg viewBox="0 0 395.52 463.0935537968545" height="247.2" width="211.12914053407428"><g transform="matrix(1,0,0,1,0,388.35309341741845)"><svg viewBox="0 0 395.52 74.74046037943603" height="74.74046037943603" width="395.52"><g id="textblocktransform"><svg viewBox="0 0 395.52 74.74046037943603" height="74.74046037943603" width="395.52" id="textblock"><g><svg viewBox="0 0 395.52 43.431068744271315" height="43.431068744271315" width="395.52"><g transform="matrix(1,0,0,1,0,0)"><svg width="395.52" viewBox="4 -29.450000762939453 272.7300109863281 29.950000762939453" height="43.431068744271315" data-palette-color="#ff0000"><path d="M35.35 0.5L35.35 0.5Q32.9 0.5 31.1-0.5 29.3-1.5 27.55-3.2L27.55-3.2Q25.65-5.2 22.95-7.8L22.95-7.8Q21.7-9.1 20.4-9.95 19.1-10.8 17.48-11.25 15.85-11.7 13.45-11.7L13.45-11.7 11.1-11.7 11.1 0 4.5 0 4.5-25.4 4-29.4 11.1-29.4 11.1-16.6 13.9-16.6Q14.9-16.6 15.55-16.85 16.2-17.1 16.75-17.65L16.75-17.65Q18.15-19.05 19.95-21.15 21.75-23.25 23.48-25.48 25.2-27.7 26.45-29.4L26.45-29.4 34.55-29.4 32.5-26.4Q31.1-24.95 29.5-23.25 27.9-21.55 26.35-19.93 24.8-18.3 23.55-17.07 22.3-15.85 21.7-15.3L21.7-15.3Q23.05-14.85 24.18-14.15 25.3-13.45 26.95-12.1L26.95-12.1Q28.2-11.1 29.38-10.05 30.55-9 32.1-7.55L32.1-7.55Q33.85-5.95 35.4-5.2 36.95-4.45 38.02-4.25 39.1-4.05 39.4-4.05L39.4-4.05 38.4 0Q38.25 0.15 37.5 0.33 36.75 0.5 35.35 0.5ZM67.7 0L43.9 0 44.4-4 44.4-29.4 51-29.4 51-4.8 71.7-4.8 73.7-0.55Q73.7-0.35 72.35-0.18 71 0 67.7 0L67.7 0ZM101.45 0L86.85 0Q83.35 0 81.35-1 79.35-2 78.52-4 77.7-6 77.7-8.95L77.7-8.95 77.7-20.5Q77.7-23.4 78.5-25.38 79.3-27.35 81.3-28.38 83.3-29.4 86.85-29.4L86.85-29.4 101.45-29.4Q104.95-29.4 106.92-28.38 108.9-27.35 109.72-25.38 110.55-23.4 110.55-20.5L110.55-20.5 110.55-8.95Q110.55-4.55 108.6-2.27 106.65 0 101.45 0L101.45 0ZM88.3-4.8L88.3-4.8 100.05-4.8Q101.9-4.8 102.92-5.75 103.95-6.7 103.95-8.35L103.95-8.35 103.95-21.1Q103.95-22.55 102.9-23.58 101.85-24.6 100.05-24.6L100.05-24.6 88.3-24.6Q86.5-24.6 85.4-23.65 84.3-22.7 84.3-21.1L84.3-21.1 84.3-8.35Q84.3-6.65 85.37-5.73 86.45-4.8 88.3-4.8ZM134.69 0L128.09 0 128.04-24.65 115.04-24.65 115.04-29.45 147.74-29.45 147.74-24.65 134.69-24.65 134.69 0ZM159.34 0L152.74 0 152.74-29.4 159.34-29.4 159.34-17.2 178.94-17.2 178.94-29.4 185.54-29.4 185.54 0 178.94 0 178.94-12.4 159.34-12.4 159.34 0ZM200.14 0L193.54 0 193.54-29.4 200.14-29.4 200.14 0ZM215.24 0L208.64 0 208.64-25.4 208.14-29.4 239.34-29.4 239.34-24.6 215.24-24.6 215.24-17.3 233.94-17.3 233.94-12.35 215.24-12.35 215.24 0ZM261.98 0L255.38 0 255.38-12.2 240.83-29.4 248.83-29.4 256.23-20.05 258.53-16.95 259.03-16.95 261.33-20.05 268.73-29.4 276.73-29.4 274.78-26.4 261.98-12 261.98 0Z" opacity="1" transform="matrix(1,0,0,1,0,0)" fill="#ff0000" class="wordmark-text-0" data-fill-palette-color="primary" id="text-0"></path></svg></g></svg></g><g transform="matrix(1,0,0,1,0,53.68410172914391)"><svg viewBox="0 0 395.52 21.056358650292115" height="21.056358650292115" width="395.52"><g transform="matrix(1,0,0,1,0,0)"><svg width="395.52" viewBox="2.450000047683716 -35.650001525878906 838.760009765625 44.650001525878906" height="21.056358650292115" data-palette-color="#ff0000"><path d="M15.5 0.4Q11.35 0.4 8.15-0.73 4.95-1.85 2.45-4.2L2.45-4.2 3.75-6.65Q6.4-4.3 9.08-3.33 11.75-2.35 15.5-2.35L15.5-2.35Q19.95-2.35 22.43-4.17 24.9-6 24.9-9.3L24.9-9.3Q24.9-11.25 23.7-12.48 22.5-13.7 20.65-14.38 18.8-15.05 15.7-15.75L15.7-15.75Q11.6-16.65 9.08-17.6 6.55-18.55 4.8-20.48 3.05-22.4 3.05-25.65L3.05-25.65Q3.05-28.65 4.6-30.9 6.15-33.15 8.97-34.4 11.8-35.65 15.6-35.65L15.6-35.65Q19.2-35.65 22.28-34.48 25.35-33.3 27.6-31.05L27.6-31.05 26.3-28.6Q23.8-30.85 21.25-31.88 18.7-32.9 15.6-32.9L15.6-32.9Q11.15-32.9 8.65-31 6.15-29.1 6.15-25.7L6.15-25.7Q6.15-22.75 8.33-21.33 10.5-19.9 14.7-18.9L14.7-18.9 16-18.6Q20.05-17.6 22.4-16.75 24.75-15.9 26.38-14.13 28-12.35 28-9.35L28-9.35Q28-6.45 26.45-4.25 24.9-2.05 22.08-0.83 19.25 0.4 15.5 0.4L15.5 0.4ZM44.15-2.25Q45.25-2.25 46.3-2.4L46.3-2.4 46.15 0.15Q45.05 0.3 43.8 0.3L43.8 0.3Q39.7 0.3 37.6-1.93 35.5-4.15 35.5-8L35.5-8 35.5-21.8 30.7-21.8 30.7-24.25 35.5-24.25 35.5-31.75 38.55-31.75 38.55-24.25 45.65-24.25 45.65-21.8 38.55-21.8 38.55-8.4Q38.55-5.35 39.97-3.8 41.4-2.25 44.15-2.25L44.15-2.25ZM59.7-3.1L68.45-24.25 71.55-24.25 57.25 9 54.15 9 58.1 0 47.7-24.25 50.95-24.25 59.7-3.1ZM79.39 0L76.34 0 76.34-35.25 79.39-35.25 79.39 0ZM107.39-13.1L107.39-11.75 89.04-11.75Q89.19-7.2 91.44-4.78 93.69-2.35 97.84-2.35L97.84-2.35Q102.24-2.35 105.79-5.35L105.79-5.35 106.99-2.95Q105.39-1.45 102.91-0.55 100.44 0.35 97.84 0.35L97.84 0.35Q92.29 0.35 89.09-3 85.89-6.35 85.89-12.2L85.89-12.2Q85.89-15.95 87.31-18.82 88.74-21.7 91.31-23.28 93.89-24.85 97.24-24.85L97.24-24.85Q101.99-24.85 104.69-21.75 107.39-18.65 107.39-13.1L107.39-13.1ZM97.24-22.35Q93.74-22.35 91.64-20.15 89.54-17.95 89.14-14L89.14-14 104.59-14Q104.49-18 102.59-20.18 100.69-22.35 97.24-22.35L97.24-22.35ZM147.59-11.8L153.89 0 150.49 0 144.54-11.3Q143.34-13.6 141.74-14.45 140.14-15.3 137.34-15.3L137.34-15.3 129.99-15.3 129.99 0 126.89 0 126.89-35.25 140.99-35.25Q146.54-35.25 149.54-32.73 152.54-30.2 152.54-25.35L152.54-25.35Q152.54-21.25 150.16-18.78 147.79-16.3 143.39-15.75L143.39-15.75Q144.69-15.35 145.71-14.38 146.74-13.4 147.59-11.8L147.59-11.8ZM129.94-17.95L140.78-17.95Q149.49-17.95 149.49-25.4L149.49-25.4Q149.49-29.05 147.34-30.83 145.19-32.6 140.78-32.6L140.78-32.6 129.94-32.6 129.94-17.95ZM180.38-13.1L180.38-11.75 162.03-11.75Q162.18-7.2 164.43-4.78 166.68-2.35 170.83-2.35L170.83-2.35Q175.23-2.35 178.78-5.35L178.78-5.35 179.98-2.95Q178.38-1.45 175.91-0.55 173.43 0.35 170.83 0.35L170.83 0.35Q165.28 0.35 162.08-3 158.88-6.35 158.88-12.2L158.88-12.2Q158.88-15.95 160.31-18.82 161.73-21.7 164.31-23.28 166.88-24.85 170.23-24.85L170.23-24.85Q174.98-24.85 177.68-21.75 180.38-18.65 180.38-13.1L180.38-13.1ZM170.23-22.35Q166.73-22.35 164.63-20.15 162.53-17.95 162.13-14L162.13-14 177.58-14Q177.48-18 175.58-20.18 173.68-22.35 170.23-22.35L170.23-22.35ZM204.33-35.25L207.38-35.25 207.38 0 204.33 0 204.33-4.65Q203.23-2.2 201.08-0.93 198.93 0.35 195.98 0.35L195.98 0.35Q192.78 0.35 190.33-1.23 187.88-2.8 186.53-5.68 185.18-8.55 185.18-12.35L185.18-12.35Q185.18-16.1 186.53-18.93 187.88-21.75 190.33-23.3 192.78-24.85 195.98-24.85L195.98-24.85Q198.93-24.85 201.08-23.58 203.23-22.3 204.33-19.85L204.33-19.85 204.33-35.25ZM196.38-2.35Q200.18-2.35 202.26-4.93 204.33-7.5 204.33-12.25L204.33-12.25Q204.33-17 202.28-19.6 200.23-22.2 196.43-22.2L196.43-22.2Q192.58-22.2 190.48-19.63 188.38-17.05 188.38-12.35L188.38-12.35Q188.38-7.6 190.48-4.98 192.58-2.35 196.38-2.35L196.38-2.35ZM235.33-13.1L235.33-11.75 216.98-11.75Q217.13-7.2 219.38-4.78 221.63-2.35 225.78-2.35L225.78-2.35Q230.18-2.35 233.73-5.35L233.73-5.35 234.93-2.95Q233.33-1.45 230.85-0.55 228.38 0.35 225.78 0.35L225.78 0.35Q220.23 0.35 217.03-3 213.83-6.35 213.83-12.2L213.83-12.2Q213.83-15.95 215.25-18.82 216.68-21.7 219.25-23.28 221.83-24.85 225.18-24.85L225.18-24.85Q229.93-24.85 232.63-21.75 235.33-18.65 235.33-13.1L235.33-13.1ZM225.18-22.35Q221.68-22.35 219.58-20.15 217.48-17.95 217.08-14L217.08-14 232.53-14Q232.43-18 230.53-20.18 228.63-22.35 225.18-22.35L225.18-22.35ZM245.93-25.75L245.93-24.25 253.03-24.25 253.03-21.8 245.93-21.8 245.93 0 242.88 0 242.88-21.8 238.08-21.8 238.08-24.25 242.88-24.25 242.88-25.45Q242.88-30.15 245.18-32.58 247.48-35 252.18-35.25L252.18-35.25 253.93-35.35 254.18-32.85 251.88-32.75Q248.83-32.55 247.38-30.83 245.93-29.1 245.93-25.75L245.93-25.75ZM260.47 0L257.42 0 257.42-24.25 260.47-24.25 260.47 0ZM256.97-30.65L256.97-34.5 260.97-34.5 260.97-30.65 256.97-30.65ZM279.87-24.85Q288.62-24.85 288.62-15.45L288.62-15.45 288.62 0 285.57 0 285.57-15.25Q285.57-18.85 284.12-20.5 282.67-22.15 279.52-22.15L279.52-22.15Q275.92-22.15 273.75-19.95 271.57-17.75 271.57-14.05L271.57-14.05 271.57 0 268.52 0 268.52-24.25 271.52-24.25 271.52-20.1Q272.67-22.4 274.85-23.63 277.02-24.85 279.87-24.85L279.87-24.85ZM316.52-13.1L316.52-11.75 298.17-11.75Q298.32-7.2 300.57-4.78 302.82-2.35 306.97-2.35L306.97-2.35Q311.37-2.35 314.92-5.35L314.92-5.35 316.12-2.95Q314.52-1.45 312.04-0.55 309.57 0.35 306.97 0.35L306.97 0.35Q301.42 0.35 298.22-3 295.02-6.35 295.02-12.2L295.02-12.2Q295.02-15.95 296.44-18.82 297.87-21.7 300.44-23.28 303.02-24.85 306.37-24.85L306.37-24.85Q311.12-24.85 313.82-21.75 316.52-18.65 316.52-13.1L316.52-13.1ZM306.37-22.35Q302.87-22.35 300.77-20.15 298.67-17.95 298.27-14L298.27-14 313.72-14Q313.62-18 311.72-20.18 309.82-22.35 306.37-22.35L306.37-22.35ZM340.47-35.25L343.52-35.25 343.52 0 340.47 0 340.47-4.65Q339.37-2.2 337.22-0.93 335.07 0.35 332.12 0.35L332.12 0.35Q328.92 0.35 326.47-1.23 324.02-2.8 322.67-5.68 321.32-8.55 321.32-12.35L321.32-12.35Q321.32-16.1 322.67-18.93 324.02-21.75 326.47-23.3 328.92-24.85 332.12-24.85L332.12-24.85Q335.07-24.85 337.22-23.58 339.37-22.3 340.47-19.85L340.47-19.85 340.47-35.25ZM332.52-2.35Q336.32-2.35 338.39-4.93 340.47-7.5 340.47-12.25L340.47-12.25Q340.47-17 338.42-19.6 336.37-22.2 332.57-22.2L332.57-22.2Q328.72-22.2 326.62-19.63 324.52-17.05 324.52-12.35L324.52-12.35Q324.52-7.6 326.62-4.98 328.72-2.35 332.52-2.35L332.52-2.35ZM350.91-20L350.91-24.25 355.16-24.25 355.16-20 350.91-20ZM350.91 0L350.91-4.3 355.16-4.3 355.16 0 350.91 0ZM389.11 0.4Q382.36 0.4 378.88-3.15 375.41-6.7 375.41-13.6L375.41-13.6 375.41-35.25 378.51-35.25 378.51-13.25Q378.51-2.35 389.11-2.35L389.11-2.35Q394.36-2.35 397.03-5.1 399.71-7.85 399.71-13.25L399.71-13.25 399.71-35.25 402.76-35.25 402.76-13.6Q402.76-6.7 399.28-3.15 395.81 0.4 389.11 0.4L389.11 0.4ZM422.46-24.85Q431.21-24.85 431.21-15.45L431.21-15.45 431.21 0 428.16 0 428.16-15.25Q428.16-18.85 426.71-20.5 425.26-22.15 422.11-22.15L422.11-22.15Q418.51-22.15 416.33-19.95 414.16-17.75 414.16-14.05L414.16-14.05 414.16 0 411.11 0 411.11-24.25 414.11-24.25 414.11-20.1Q415.26-22.4 417.43-23.63 419.61-24.85 422.46-24.85L422.46-24.85ZM442.2 0L439.15 0 439.15-35.25 442.2-35.25 442.2 0ZM470.2-13.1L470.2-11.75 451.85-11.75Q452-7.2 454.25-4.78 456.5-2.35 460.65-2.35L460.65-2.35Q465.05-2.35 468.6-5.35L468.6-5.35 469.8-2.95Q468.2-1.45 465.73-0.55 463.25 0.35 460.65 0.35L460.65 0.35Q455.1 0.35 451.9-3 448.7-6.35 448.7-12.2L448.7-12.2Q448.7-15.95 450.13-18.82 451.55-21.7 454.13-23.28 456.7-24.85 460.05-24.85L460.05-24.85Q464.8-24.85 467.5-21.75 470.2-18.65 470.2-13.1L470.2-13.1ZM460.05-22.35Q456.55-22.35 454.45-20.15 452.35-17.95 451.95-14L451.95-14 467.4-14Q467.3-18 465.4-20.18 463.5-22.35 460.05-22.35L460.05-22.35ZM486.15-24.85Q490.55-24.85 492.72-22.55 494.9-20.25 494.9-15.6L494.9-15.6 494.9 0 491.9 0 491.9-4.35Q490.85-2.1 488.85-0.88 486.85 0.35 484.25 0.35L484.25 0.35Q481.9 0.35 479.95-0.6 478-1.55 476.87-3.25 475.75-4.95 475.75-7L475.75-7Q475.75-9.7 477.15-11.2 478.55-12.7 481.8-13.35 485.05-14 490.85-14L490.85-14 491.9-14 491.9-15.85Q491.9-19.15 490.55-20.68 489.2-22.2 486.3-22.2L486.3-22.2Q484.1-22.2 482.07-21.58 480.05-20.95 477.9-19.55L477.9-19.55 476.75-21.9Q478.6-23.25 481.15-24.05 483.7-24.85 486.15-24.85L486.15-24.85ZM484.5-2.3Q487.75-2.3 489.82-4.5 491.9-6.7 491.9-10.1L491.9-10.1 491.9-11.75 490.95-11.75Q486.15-11.75 483.6-11.35 481.05-10.95 480-9.98 478.95-9 478.95-7.15L478.95-7.15Q478.95-5.05 480.55-3.68 482.15-2.3 484.5-2.3L484.5-2.3ZM510.75 0.35Q505 0.35 501.35-2.9L501.35-2.9 502.5-5.25Q504.45-3.65 506.4-2.98 508.35-2.3 510.9-2.3L510.9-2.3Q513.85-2.3 515.42-3.35 517-4.4 517-6.3L517-6.3Q517-7.9 515.95-8.88 514.9-9.85 512.6-10.35L512.6-10.35 508.5-11.3Q505.55-12 503.87-13.73 502.2-15.45 502.2-17.8L502.2-17.8Q502.2-20.95 504.65-22.9 507.1-24.85 511.2-24.85L511.2-24.85Q513.75-24.85 515.97-24.03 518.2-23.2 519.65-21.65L519.65-21.65 518.5-19.3Q516.8-20.8 515.02-21.5 513.25-22.2 511.2-22.2L511.2-22.2Q508.45-22.2 506.9-21.1 505.35-20 505.35-18.05L505.35-18.05Q505.35-16.45 506.32-15.45 507.3-14.45 509.35-13.95L509.35-13.95 513.5-12.95Q520.1-11.45 520.1-6.45L520.1-6.45Q520.1-3.35 517.57-1.5 515.05 0.35 510.75 0.35L510.75 0.35ZM538.09-24.85Q546.84-24.85 546.84-15.45L546.84-15.45 546.84 0 543.79 0 543.79-15.25Q543.79-18.85 542.34-20.5 540.89-22.15 537.74-22.15L537.74-22.15Q534.14-22.15 531.97-19.95 529.79-17.75 529.79-14.05L529.79-14.05 529.79 0 526.74 0 526.74-35.25 529.79-35.25 529.79-20.2Q530.94-22.45 533.12-23.65 535.29-24.85 538.09-24.85L538.09-24.85ZM589.84-35.25L593.29-35.25 579.64-16.85 579.64 0 576.59 0 576.59-16.95 562.99-35.25 566.54-35.25 578.19-19.45 589.84-35.25ZM602.83 0.35Q599.48 0.35 596.96-1.2 594.43-2.75 593.03-5.6 591.63-8.45 591.63-12.25L591.63-12.25Q591.63-16.05 593.03-18.9 594.43-21.75 596.96-23.3 599.48-24.85 602.83-24.85L602.83-24.85Q606.13-24.85 608.68-23.3 611.23-21.75 612.61-18.9 613.98-16.05 613.98-12.25L613.98-12.25Q613.98-8.45 612.61-5.6 611.23-2.75 608.68-1.2 606.13 0.35 602.83 0.35L602.83 0.35ZM602.78-2.35Q606.63-2.35 608.73-4.9 610.83-7.45 610.83-12.25L610.83-12.25Q610.83-16.95 608.71-19.58 606.58-22.2 602.83-22.2L602.83-22.2Q599.03-22.2 596.93-19.58 594.83-16.95 594.83-12.25L594.83-12.25Q594.83-7.45 596.88-4.9 598.93-2.35 602.78-2.35L602.78-2.35ZM637.03-24.25L640.08-24.25 640.08 0 637.08 0 637.08-4.35Q635.93-2.05 633.81-0.85 631.68 0.35 628.98 0.35L628.98 0.35Q624.68 0.35 622.51-2.02 620.33-4.4 620.33-9.05L620.33-9.05 620.33-24.25 623.38-24.25 623.38-9.25Q623.38-5.7 624.81-4.03 626.23-2.35 629.28-2.35L629.28-2.35Q632.78-2.35 634.91-4.58 637.03-6.8 637.03-10.5L637.03-10.5 637.03-24.25ZM660.53-24.85L660.78-22.2 658.63-22Q654.68-21.6 652.9-19.45 651.13-17.3 651.13-14.2L651.13-14.2 651.13 0 648.08 0 648.08-24.25 651.08-24.25 651.08-20Q652.18-22.25 654.2-23.38 656.23-24.5 659.23-24.75L659.23-24.75 660.53-24.85ZM681.27 0L678.17 0 678.17-35.25 699.42-35.25 699.42-32.6 681.27-32.6 681.27-19.25 698.42-19.25 698.42-16.55 681.27-16.55 681.27 0ZM714.12-24.85Q718.52-24.85 720.7-22.55 722.87-20.25 722.87-15.6L722.87-15.6 722.87 0 719.87 0 719.87-4.35Q718.82-2.1 716.82-0.88 714.82 0.35 712.22 0.35L712.22 0.35Q709.87 0.35 707.92-0.6 705.97-1.55 704.85-3.25 703.72-4.95 703.72-7L703.72-7Q703.72-9.7 705.12-11.2 706.52-12.7 709.77-13.35 713.02-14 718.82-14L718.82-14 719.87-14 719.87-15.85Q719.87-19.15 718.52-20.68 717.17-22.2 714.27-22.2L714.27-22.2Q712.07-22.2 710.05-21.58 708.02-20.95 705.87-19.55L705.87-19.55 704.72-21.9Q706.57-23.25 709.12-24.05 711.67-24.85 714.12-24.85L714.12-24.85ZM712.47-2.3Q715.72-2.3 717.8-4.5 719.87-6.7 719.87-10.1L719.87-10.1 719.87-11.75 718.92-11.75Q714.12-11.75 711.57-11.35 709.02-10.95 707.97-9.98 706.92-9 706.92-7.15L706.92-7.15Q706.92-5.05 708.52-3.68 710.12-2.3 712.47-2.3L712.47-2.3ZM738.72 0.35Q732.97 0.35 729.32-2.9L729.32-2.9 730.47-5.25Q732.42-3.65 734.37-2.98 736.32-2.3 738.87-2.3L738.87-2.3Q741.82-2.3 743.39-3.35 744.97-4.4 744.97-6.3L744.97-6.3Q744.97-7.9 743.92-8.88 742.87-9.85 740.57-10.35L740.57-10.35 736.47-11.3Q733.52-12 731.84-13.73 730.17-15.45 730.17-17.8L730.17-17.8Q730.17-20.95 732.62-22.9 735.07-24.85 739.17-24.85L739.17-24.85Q741.72-24.85 743.94-24.03 746.17-23.2 747.62-21.65L747.62-21.65 746.47-19.3Q744.77-20.8 742.99-21.5 741.22-22.2 739.17-22.2L739.17-22.2Q736.42-22.2 734.87-21.1 733.32-20 733.32-18.05L733.32-18.05Q733.32-16.45 734.29-15.45 735.27-14.45 737.32-13.95L737.32-13.95 741.47-12.95Q748.07-11.45 748.07-6.45L748.07-6.45Q748.07-3.35 745.54-1.5 743.02 0.35 738.72 0.35L738.72 0.35ZM766.07-24.85Q774.82-24.85 774.82-15.45L774.82-15.45 774.82 0 771.77 0 771.77-15.25Q771.77-18.85 770.32-20.5 768.87-22.15 765.72-22.15L765.72-22.15Q762.12-22.15 759.94-19.95 757.77-17.75 757.77-14.05L757.77-14.05 757.77 0 754.72 0 754.72-35.25 757.77-35.25 757.77-20.2Q758.92-22.45 761.09-23.65 763.27-24.85 766.07-24.85L766.07-24.85ZM785.81 0L782.76 0 782.76-24.25 785.81-24.25 785.81 0ZM782.31-30.65L782.31-34.5 786.31-34.5 786.31-30.65 782.31-30.65ZM803.51 0.35Q800.16 0.35 797.64-1.2 795.11-2.75 793.71-5.6 792.31-8.45 792.31-12.25L792.31-12.25Q792.31-16.05 793.71-18.9 795.11-21.75 797.64-23.3 800.16-24.85 803.51-24.85L803.51-24.85Q806.81-24.85 809.36-23.3 811.91-21.75 813.29-18.9 814.66-16.05 814.66-12.25L814.66-12.25Q814.66-8.45 813.29-5.6 811.91-2.75 809.36-1.2 806.81 0.35 803.51 0.35L803.51 0.35ZM803.46-2.35Q807.31-2.35 809.41-4.9 811.51-7.45 811.51-12.25L811.51-12.25Q811.51-16.95 809.39-19.58 807.26-22.2 803.51-22.2L803.51-22.2Q799.71-22.2 797.61-19.58 795.51-16.95 795.51-12.25L795.51-12.25Q795.51-7.45 797.56-4.9 799.61-2.35 803.46-2.35L803.46-2.35ZM832.46-24.85Q841.21-24.85 841.21-15.45L841.21-15.45 841.21 0 838.16 0 838.16-15.25Q838.16-18.85 836.71-20.5 835.26-22.15 832.11-22.15L832.11-22.15Q828.51-22.15 826.33-19.95 824.16-17.75 824.16-14.05L824.16-14.05 824.16 0 821.11 0 821.11-24.25 824.11-24.25 824.11-20.1Q825.26-22.4 827.43-23.63 829.61-24.85 832.46-24.85L832.46-24.85Z" opacity="1" transform="matrix(1,0,0,1,0,0)" fill="#ff0000" class="slogan-text-1" data-fill-palette-color="secondary" id="text-1"></path></svg></g></svg></g></svg></g></svg></g><g transform="matrix(1,0,0,1,13.836486276163356,0)"><svg viewBox="0 0 367.84702744767327 367.84702744767327" height="367.84702744767327" width="367.84702744767327"><g><svg></svg></g><g id="icon-0"><svg viewBox="0 0 367.84702744767327 367.84702744767327" height="367.84702744767327" width="367.84702744767327"><g><path d="M0 183.924c0-101.578 82.345-183.924 183.924-183.924 101.578 0 183.924 82.345 183.923 183.924 0 101.578-82.345 183.924-183.923 183.923-101.578 0-183.924-82.345-183.924-183.923zM183.924 363.93c99.415 0 180.007-80.592 180.006-180.006 0-99.415-80.592-180.007-180.006-180.007-99.415 0-180.007 80.592-180.007 180.007 0 99.415 80.592 180.007 180.007 180.006z" data-fill-palette-color="accent" fill="#ff0000" stroke="transparent"></path><ellipse rx="182.08427858659826" ry="182.08427858659826" cx="183.92351372383663" cy="183.92351372383663" fill="#ff0000" stroke="transparent" stroke-width="0" fill-opacity="1" data-fill-palette-color="accent"></ellipse></g><g transform="matrix(1,0,0,1,118.51806380225106,73.92335302492886)"><svg viewBox="0 0 130.81089984317114 220.00032139781555" height="220.00032139781555" width="130.81089984317114"><g><svg xmlns="http://www.w3.org/2000/svg" xmlns:xlink="http://www.w3.org/1999/xlink" version="1.1" x="0" y="0" viewBox="11.729736328125 1.9999914169311523 28.54052734375 48.00001525878906" enable-background="new 0 0 52 52" xml:space="preserve" height="220.00032139781555" width="130.81089984317114" class="icon-s-0" data-fill-palette-color="quaternary" id="s-0"><g fill="#ffffff" data-fill-palette-color="quaternary"><polygon points="25.4512329,14.1586828 29.0197144,7.9100256 24.2997437,1.9999914 17.3397217,1.9999914 12.6097412,7.9100256    16.1859131,14.1586828  " fill="#ffffff" data-fill-palette-color="quaternary"></polygon><polygon points="37.5925293,28.3139572 28.1818237,22.0850754 29.9006348,31.3582687 34.5808105,35.0903244 40.2702637,33.6684494     " fill="#ffffff" data-fill-palette-color="quaternary"></polygon><polygon points="16.5896606,16.1586838 11.7297363,42.3799973 20.8197021,50.0000076 29.909729,42.3799973 25.0498047,16.1586838     " fill="#ffffff" data-fill-palette-color="quaternary"></polygon></g></svg></g></svg></g></svg></g></svg></g><g></g></svg></g><defs></defs></svg><rect width="211.12914053407428" height="247.2" fill="none" stroke="none" visibility="hidden"></rect></g></svg></g></svg>